<svg width="500" height="500" viewBox="0 0 500 500" xmlns="http://www.w3.org/2000/svg" fill-rule="evenodd" clip-rule="evenodd" stroke-linejoin="round" stroke-miterlimit="2"><path d="M250.438 1.829l-234.01 80.29 33.575 307.44 200.435 108.174V1.83z" fill="#412846"/><path d="M249.416 1.829l234.157 80.29-33.576 307.44-200.58 108.174V1.83z" fill="#4b314f"/><path d="M366.786 171.461h-.146c10.657 11.679 16.059 25.693 16.496 41.897a92.718 92.718 0 01-16.642 51.094c8.467-6.569 18.394-20.583 29.489-42.335 4.817 43.795-13.138 77.08-53.722 99.853 12.993-1.168 30.219-9.635 51.532-25.401-22.773 54.305-64.67 83.064-125.837 86.13-58.977 0-97.37-35.182-97.225-35.182a142.404 142.404 0 01-50.072-70.656c-14.598-15.766-14.598-17.518-16.204-23.65-1.46-6.277 1.022-8.028 5.255-14.16 2.92-4.087 3.504-9.927 2.044-17.518a43.704 43.704 0 01-6.277-23.357c0-5.11 3.503-10.51 10.219-16.058 7.007-5.84 11.24-10.219 12.7-13.139 1.168-1.751 1.752-8.759 1.46-21.313 0-12.409 6.861-18.978 20.73-20.146 20.875-1.752 32.7-17.226 39.269-24.233 4.38-4.817 10.803-7.007 18.978-7.153 11.532-.438 21.897 3.795 30.948 12.846a127.008 127.008 0 0168.612 17.81c33.284 19.562 51.24 40.584 54.306 63.211-3.504 29.635-43.795 28.905-120.874-2.336-40.145 11.241-60 35.766-59.415 73.284 0 34.598 16.934 59.707 50.656 75.327-16.496-16.058-23.357-29.343-21.168-40.437 34.16 39.999 73.138 54.89 116.787 44.816a55.344 55.344 0 01-45.985-18.393c29.489-.73 57.226-14.307 83.502-40.876a58.741 58.741 0 01-47.736 13.723c45.4-35.328 61.313-76.495 48.174-123.648h.146zm-82.48-5.401c3.65 0 6.715-2.92 6.715-6.57 0-3.649-2.92-6.569-6.715-6.569-3.796 0-6.715 2.92-6.715 6.57 0 3.65 2.92 6.569 6.715 6.569z" fill="#ba2bd2" fill-rule="nonzero"/></svg>